HIERARCHY
ROOT Hips
{
  OFFSET -460.537 92.9359 645.583
  CHANNELS 6 Xposition Yposition Zposition Zrotation Xrotation Yrotation
  JOINT Spine
  {
    OFFSET -1.50235e-05 8 1.28926e-05
    CHANNELS 6 Xposition Yposition Zposition Zrotation Xrotation Yrotation
    JOINT Spine1
    {
      OFFSET 1.68234e-05 8 0
      CHANNELS 6 Xposition Yposition Zposition Zrotation Xrotation Yrotation
      JOINT Spine2
      {
        OFFSET -1.05336e-05 8 0
        CHANNELS 6 Xposition Yposition Zposition Zrotation Xrotation Yrotation
        JOINT Spine3
        {
          OFFSET 0 8 0
          CHANNELS 6 Xposition Yposition Zposition Zrotation Xrotation Yrotation
          JOINT Neck
          {
            OFFSET 0.000163958 17 -0.000133147
            CHANNELS 6 Xposition Yposition Zposition Zrotation Xrotation Yrotation
            JOINT Head
            {
              OFFSET 1.0618e-05 10.8 2.97295e-05
              CHANNELS 6 Xposition Yposition Zposition Zrotation Xrotation Yrotation
              End Site
              {
                OFFSET 0 20.25 0
              }
            }
          }
          JOINT LeftShoulder
          {
            OFFSET 5.00014 17 5.78937e-05
            CHANNELS 6 Xposition Yposition Zposition Zrotation Xrotation Yrotation
            JOINT LeftShoulder2
            {
              OFFSET 6.45 0 0
              CHANNELS 6 Xposition Yposition Zposition Zrotation Xrotation Yrotation
              JOINT LeftArm
              {
                OFFSET 6.45006 0 -0.000288204
                CHANNELS 6 Xposition Yposition Zposition Zrotation Xrotation Yrotation
                JOINT LeftForeArm
                {
                  OFFSET 0 -32.4 -1.99631
                  CHANNELS 6 Xposition Yposition Zposition Zrotation Xrotation Yrotation
                  JOINT LeftHand
                  {
                    OFFSET 0 -25.65 2
                    CHANNELS 6 Xposition Yposition Zposition Zrotation Xrotation Yrotation
                    JOINT LeftHandThumb1
                    {
                      OFFSET -0.500017 -1.49996 2.64997
                      CHANNELS 6 Xposition Yposition Zposition Zrotation Xrotation Yrotation
                      JOINT LeftHandThumb2
                      {
                        OFFSET 2.45778e-05 -3.79998 3.70007
                        CHANNELS 6 Xposition Yposition Zposition Zrotation Xrotation Yrotation
                        JOINT LeftHandThumb3
                        {
                          OFFSET -2.06592e-05 -3.00003 2.69993
                          CHANNELS 6 Xposition Yposition Zposition Zrotation Xrotation Yrotation
                          End Site
                          {
                            OFFSET 0 -2.3 1.8
                          }
                        }
                      }
                    }
                    JOINT LeftHandIndex
                    {
                      OFFSET 4.45455e-05 -1.90005 1.60001
                      CHANNELS 6 Xposition Yposition Zposition Zrotation Xrotation Yrotation
                      JOINT LeftHandIndex1
                      {
                        OFFSET -2.6158e-05 -8.29998 1.89998
                        CHANNELS 6 Xposition Yposition Zposition Zrotation Xrotation Yrotation
                        JOINT LeftHandIndex2
                        {
                          OFFSET 0 -4.49994 0
                          CHANNELS 6 Xposition Yposition Zposition Zrotation Xrotation Yrotation
                          JOINT LeftHandIndex3
                          {
                            OFFSET -3.33228e-05 -3.41568 0
                            CHANNELS 6 Xposition Yposition Zposition Zrotation Xrotation Yrotation
                            End Site
                            {
                              OFFSET -2.85255e-05 -2.59992 -1.07488e-05
                            }
                          }
                        }
                      }
                    }
                    JOINT LeftHandMiddle
                    {
                      OFFSET -0.249994 -2.19999 0.4
                      CHANNELS 6 Xposition Yposition Zposition Zrotation Xrotation Yrotation
                      JOINT LeftHandMiddle1
                      {
                        OFFSET 0 -8.29994 1
                        CHANNELS 6 Xposition Yposition Zposition Zrotation Xrotation Yrotation
                        JOINT LeftHandMiddle2
                        {
                          OFFSET -3.87171e-05 -4.65002 -1.8442e-05
                          CHANNELS 6 Xposition Yposition Zposition Zrotation Xrotation Yrotation
                          JOINT LeftHandMiddle3
                          {
                            OFFSET 0 -3.3 1.96775e-05
                            CHANNELS 6 Xposition Yposition Zposition Zrotation Xrotation Yrotation
                            End Site
                            {
                              OFFSET -6.79762e-05 -2.69998 -1.06235e-05
                            }
                          }
                        }
                      }
                    }
                    JOINT LeftHandRing
                    {
                      OFFSET -0.500008 -2.15003 -0.8
                      CHANNELS 6 Xposition Yposition Zposition Zrotation Xrotation Yrotation
                      JOINT LeftHandRing1
                      {
                        OFFSET 1.40628e-05 -7.74998 -0.200003
                        CHANNELS 6 Xposition Yposition Zposition Zrotation Xrotation Yrotation
                        JOINT LeftHandRing2
                        {
                          OFFSET -2.59222e-05 -3.8412 -1.73131e-05
                          CHANNELS 6 Xposition Yposition Zposition Zrotation Xrotation Yrotation
                          JOINT LeftHandRing3
                          {
                            OFFSET 0 -3.39998 0
                            CHANNELS 6 Xposition Yposition Zposition Zrotation Xrotation Yrotation
                            End Site
                            {
                              OFFSET -4.5441e-05 -2.60004 0
                            }
                          }
                        }
                      }
                    }
                    JOINT LeftHandPinky
                    {
                      OFFSET -0.750011 -1.74998 -1.85001
                      CHANNELS 6 Xposition Yposition Zposition Zrotation Xrotation Yrotation
                      JOINT LeftHandPinky1
                      {
                        OFFSET -3.17983e-05 -7.15002 -1
                        CHANNELS 6 Xposition Yposition Zposition Zrotation Xrotation Yrotation
                        JOINT LeftHandPinky2
                        {
                          OFFSET 1.88996e-05 -3.00757 0
                          CHANNELS 6 Xposition Yposition Zposition Zrotation Xrotation Yrotation
                          JOINT LeftHandPinky3
                          {
                            OFFSET 1.34399e-05 -2.35001 -1.32041e-05
                            CHANNELS 6 Xposition Yposition Zposition Zrotation Xrotation Yrotation
                            End Site
                            {
                              OFFSET 0 -2.10001 3.01657e-05
                            }
                          }
                        }
                      }
                    }
                  }
                }
              }
            }
          }
          JOINT RightShoulder
          {
            OFFSET -4.99984 17 -0.000345105
            CHANNELS 6 Xposition Yposition Zposition Zrotation Xrotation Yrotation
            JOINT RightShoulder2
            {
              OFFSET -6.45 0 0
              CHANNELS 6 Xposition Yposition Zposition Zrotation Xrotation Yrotation
              JOINT RightArm
              {
                OFFSET -6.45004 0.000415605 -0.0012841
                CHANNELS 6 Xposition Yposition Zposition Zrotation Xrotation Yrotation
                JOINT RightForeArm
                {
                  OFFSET -5.60843e-05 -32.4 -2.00005
                  CHANNELS 6 Xposition Yposition Zposition Zrotation Xrotation Yrotation
                  JOINT RightHand
                  {
                    OFFSET 4.05469e-05 -25.65 2.00004
                    CHANNELS 6 Xposition Yposition Zposition Zrotation Xrotation Yrotation
                    JOINT RightHandThumb1
                    {
                      OFFSET 0.500003 -1.49999 2.64998
                      CHANNELS 6 Xposition Yposition Zposition Zrotation Xrotation Yrotation
                      JOINT RightHandThumb2
                      {
                        OFFSET 0 -3.80005 3.70001
                        CHANNELS 6 Xposition Yposition Zposition Zrotation Xrotation Yrotation
                        JOINT RightHandThumb3
                        {
                          OFFSET -1.98612e-05 -3 2.7
                          CHANNELS 6 Xposition Yposition Zposition Zrotation Xrotation Yrotation
                          End Site
                          {
                            OFFSET 0 -2.29999 1.8
                          }
                        }
                      }
                    }
                    JOINT RightHandIndex
                    {
                      OFFSET 6.75756e-05 -1.89991 1.59998
                      CHANNELS 6 Xposition Yposition Zposition Zrotation Xrotation Yrotation
                      JOINT RightHandIndex1
                      {
                        OFFSET -4.49042e-05 -8.30005 1.89997
                        CHANNELS 6 Xposition Yposition Zposition Zrotation Xrotation Yrotation
                        JOINT RightHandIndex2
                        {
                          OFFSET -3.81389e-05 -4.49998 5.81687e-05
                          CHANNELS 6 Xposition Yposition Zposition Zrotation Xrotation Yrotation
                          JOINT RightHandIndex3
                          {
                            OFFSET 6.09094e-05 -3.4 -2.74986e-05
                            CHANNELS 6 Xposition Yposition Zposition Zrotation Xrotation Yrotation
                            End Site
                            {
                              OFFSET -3.07203e-05 -2.6 1.27057e-05
                            }
                          }
                        }
                      }
                    }
                    JOINT RightHandMiddle
                    {
                      OFFSET 0.249993 -2.20001 0.400022
                      CHANNELS 6 Xposition Yposition Zposition Zrotation Xrotation Yrotation
                      JOINT RightHandMiddle1
                      {
                        OFFSET 2.98789e-05 -8.29992 0.999991
                        CHANNELS 6 Xposition Yposition Zposition Zrotation Xrotation Yrotation
                        JOINT RightHandMiddle2
                        {
                          OFFSET -4.00046e-05 -4.65004 -3.88342e-05
                          CHANNELS 6 Xposition Yposition Zposition Zrotation Xrotation Yrotation
                          JOINT RightHandMiddle3
                          {
                            OFFSET 6.47647e-05 -3.29997 0
                            CHANNELS 6 Xposition Yposition Zposition Zrotation Xrotation Yrotation
                            End Site
                            {
                              OFFSET -7.85104e-05 -2.69996 6.33542e-05
                            }
                          }
                        }
                      }
                    }
                    JOINT RightHandRing
                    {
                      OFFSET 0.499997 -2.15002 -0.800028
                      CHANNELS 6 Xposition Yposition Zposition Zrotation Xrotation Yrotation
                      JOINT RightHandRing1
                      {
                        OFFSET 3.59678e-05 -7.74998 -0.200022
                        CHANNELS 6 Xposition Yposition Zposition Zrotation Xrotation Yrotation
                        JOINT RightHandRing2
                        {
                          OFFSET 1.03436e-05 -3.80001 1.63319e-05
                          CHANNELS 6 Xposition Yposition Zposition Zrotation Xrotation Yrotation
                          JOINT RightHandRing3
                          {
                            OFFSET -5.49501e-05 -3.39998 0
                            CHANNELS 6 Xposition Yposition Zposition Zrotation Xrotation Yrotation
                            End Site
                            {
                              OFFSET -2.16082e-05 -2.59999 -2.58971e-05
                            }
                          }
                        }
                      }
                    }
                    JOINT RightHandPinky
                    {
                      OFFSET 0.750022 -1.74995 -1.84997
                      CHANNELS 6 Xposition Yposition Zposition Zrotation Xrotation Yrotation
                      JOINT RightHandPinky1
                      {
                        OFFSET -1.73718e-05 -7.15 -0.999989
                        CHANNELS 6 Xposition Yposition Zposition Zrotation Xrotation Yrotation
                        JOINT RightHandPinky2
                        {
                          OFFSET 0 -2.99998 1.87713e-05
                          CHANNELS 6 Xposition Yposition Zposition Zrotation Xrotation Yrotation
                          JOINT RightHandPinky3
                          {
                            OFFSET -3.43647e-05 -2.35004 0
                            CHANNELS 6 Xposition Yposition Zposition Zrotation Xrotation Yrotation
                            End Site
                            {
                              OFFSET 0 -2.09993 0
                            }
                          }
                        }
                      }
                    }
                  }
                }
              }
            }
          }
        }
      }
    }
  }
  JOINT LeftUpLeg
  {
    OFFSET 7.99999 0 1.58695e-05
    CHANNELS 6 Xposition Yposition Zposition Zrotation Xrotation Yrotation
    JOINT LeftLeg
    {
      OFFSET 0 -45 -1.00001
      CHANNELS 6 Xposition Yposition Zposition Zrotation Xrotation Yrotation
      JOINT LeftFoot
      {
        OFFSET 3.08295e-05 -41 -2
        CHANNELS 6 Xposition Yposition Zposition Zrotation Xrotation Yrotation
        JOINT LeftToeBase
        {
          OFFSET 0 -7.5 12.5
          CHANNELS 6 Xposition Yposition Zposition Zrotation Xrotation Yrotation
          JOINT LeftFootToe
          {
            OFFSET 0 0 4
            CHANNELS 6 Xposition Yposition Zposition Zrotation Xrotation Yrotation
            End Site
            {
              OFFSET 0 0 0
            }
          }
        }
      }
    }
  }
  JOINT RightUpLeg
  {
    OFFSET -7.99999 0 -1.58695e-05
    CHANNELS 6 Xposition Yposition Zposition Zrotation Xrotation Yrotation
    JOINT RightLeg
    {
      OFFSET -1.50822e-05 -45 -0.999914
      CHANNELS 6 Xposition Yposition Zposition Zrotation Xrotation Yrotation
      JOINT RightFoot
      {
        OFFSET 3.18811e-05 -41.0001 -2.00009
        CHANNELS 6 Xposition Yposition Zposition Zrotation Xrotation Yrotation
        JOINT RightToeBase
        {
          OFFSET -2.48902e-05 -7.5 12.5
          CHANNELS 6 Xposition Yposition Zposition Zrotation Xrotation Yrotation
          JOINT RightFootToe
          {
            OFFSET 0 0 4
            CHANNELS 6 Xposition Yposition Zposition Zrotation Xrotation Yrotation
            End Site
            {
              OFFSET 0 0 0
            }
          }
        }
      }
    }
  }
}
MOTION
Frames:	2
Frame Time:	0.0111111
-454.395 92.5262 644.31 0.304463 0.295826 -128.144 -1.54449e-05 8 3.39104e-06 -0.0285062 4.06504 0.863704 3.05323e-06 8 -2.13291e-05 0.318208 -1.0937 0.767692 7.34485e-06 8 3.403e-05 0.141097 -0.539729 0.383054 0 8 -5.68434e-14 0.142268 -0.544923 0.384657 -0.000172248 17 -0.00025595 -0.331211 5.40077 14.154 3.49616e-05 10.8 1.10897e-05 -2.82168 -2.6118 33.1653 4.9998 17 -0.000193509 -6.878 8.91278 -8.23061 6.45 0 5.68434e-14 -1.04743 0.854088 -0.217064 6.45002 0.000119746 0.000350531 27.1772 -16.7221 33.0353 -4.90135e-06 -32.4 -1.99695 -12.5827 -55.7399 7.96259 -1.03261e-05 -25.65 2 -9.50466 15.368 30.4486 -0.499992 -1.49998 2.64999 -9.46345 -18.6164 -6.9319 -4.13717e-07 -3.79998 3.70004 -0.14561 8.13449 0.012107 3.5402e-07 -3.00004 2.69995 -0.00458795 55.0787 0.00297018 1.35361e-05 -1.90009 1.59998 2.46703e-06 2.62362e-06 -9.85211e-06 6.88047e-06 -8.29995 1.9 -5.30128 -18.2961 -0.660613 -2.07565e-06 -4.49996 -5.41051e-06 -8.69715e-05 0.000694352 -0.0277598 -4.28726e-05 -3.4239 2.15166e-05 2.44427e-05 0.000706585 -0.0271736 -0.249993 -2.2 0.4 2.46703e-06 2.62362e-06 -9.85211e-06 -1.49941e-05 -8.29998 0.999993 -11.7448 -2.79261 0.354036 -2.49048e-09 -4.64997 1.1277e-06 -0.000101341 -0.00420313 -0.000805916 -2.56664e-05 -3.30004 1.15377e-05 3.51333e-06 -0.00378652 -0.000760637 -0.500014 -2.15006 -0.800018 2.46703e-06 2.62362e-06 -9.85211e-06 -8.50461e-06 -7.75001 -0.199999 -26.5325 11.9526 4.41308 1.00437e-05 -3.84935 9.02652e-07 -1.35906 -0.00572521 -0.00540364 -1.27827e-05 -3.40003 1.35011e-05 -3.97261e-05 -0.00929209 -0.00386357 -0.75002 -1.75003 -1.85001 2.46703e-06 2.62362e-06 -9.85211e-06 -1.75934e-05 -7.15 -0.999996 -39.9512 16.566 8.40734 1.19021e-05 -3.00609 8.6701e-07 -30.3773 0.0178807 -0.0371502 -1.80488e-05 -2.35002 5.30195e-06 -15.535 0.0132779 -0.0241302 -5.0002 16.9999 -0.000337222 0.451852 8.46776 0.998327 -6.45 -2.84217e-14 -5.68434e-14 -0.227053 -1.26477 -3.10808 -6.44999 0.000195905 -0.000384437 -59.2045 35.3935 -23.0801 -7.16054e-05 -32.4 -1.99994 62.201 -59.0701 64.811 5.84589e-05 -25.65 1.99999 -18.2203 -20.0853 22.7968 0.499998 -1.50004 2.65002 -100.321 8.59914 -54.2523 -5.89644e-05 -3.80006 3.70003 0.0618839 53.6103 0.0943766 -8.6633e-06 -3 2.69999 0.143077 45.5452 -0.572264 6.03382e-05 -1.89997 1.6 -1.94285e-06 -5.14492e-06 -3.56741e-06 -6.11137e-05 -8.30001 1.89996 4.85016 -6.79764 0.268993 -3.22397e-05 -4.49998 4.85188e-05 61.7073 -0.0135382 -0.01321 4.50079e-05 -3.39999 -1.6755e-05 43.94 -0.00323968 -0.000551876 0.249969 -2.19998 0.400045 -1.94285e-06 -5.14492e-06 -3.56741e-06 2.38203e-05 -8.29996 0.999989 19.233 -5.96063 -0.00673615 -1.20684e-05 -4.65003 -2.47509e-05 92.9675 -0.00213069 0.0219828 3.49888e-05 -3.29996 -1.01941e-05 88.4255 0.00961512 -0.00589114 0.499994 -2.15003 -0.799997 -1.94285e-06 -5.14492e-06 -3.56741e-06 3.32831e-05 -7.75001 -0.200036 42.1332 -3.1567 -1.59708 4.06855e-06 -3.8 1.66202e-05 83.9217 -0.00461559 0.00589846 -2.5278e-05 -3.39995 -9.48401e-06 73.5251 0.0103362 0.00291587 0.750031 -1.74996 -1.84996 -1.94285e-06 -5.14492e-06 -3.56741e-06 -3.73632e-05 -7.15 -0.999996 61.0139 -5.3648 -1.64253 -5.09541e-06 -2.99998 2.36568e-05 61.1721 -0.000670579 -0.000334302 -1.51668e-05 -2.35003 -1.12032e-05 43.0862 0.0010198 -0.0100706 8.00001 7.23544e-08 -1.02509e-05 12.9755 -17.6963 21.4928 6.78584e-06 -45 -1.00005 0.391564 1.98341 -0.507631 4.7885e-06 -41 -2.00001 -6.15286 18.7067 -29.5548 -1.91192e-05 -7.5 12.5 -1.90757e-07 -2.97291e-08 3.73165e-09 0 4.44089e-16 4 0.105932 -4.21326 42.6289 -8.00001 -7.23545e-08 1.02509e-05 -7.20102 -4.26743 -15.8736 8.32895e-06 -45 -1.00001 0.0507911 14.5065 -6.34376 -5.4844e-06 -41 -2.00006 13.8632 -5.67917 -9.26738 2.94971e-05 -7.5 12.5 -0.000180478 -1.72242 4.73797e-05 0 0 4 -4.93579 6.54591 23.7545 
-454.547 92.4685 644.201 0.310416 0.301119 -128.151 -1.54449e-05 8 3.39104e-06 -0.0273181 4.04728 0.929883 3.05323e-06 8 -2.13291e-05 0.321238 -1.09368 0.810649 7.34485e-06 8 3.403e-05 0.1413 -0.539727 0.404536 1.13687e-13 8 -5.68434e-14 0.14257 -0.545007 0.405429 -0.000172248 17 -0.00025595 -0.283336 5.41032 14.1085 3.49616e-05 10.8 1.10897e-05 -2.79388 -2.55958 33.0645 4.9998 17 -0.000193509 -6.83757 8.89111 -8.26717 6.45 -2.84217e-14 -5.68434e-14 -1.04894 0.850418 -0.235342 6.45002 0.000119746 0.000350531 26.9977 -16.6905 32.7408 -4.90135e-06 -32.4 -1.99695 -12.6058 -55.8583 8.03764 -1.03261e-05 -25.65 2 -9.17807 15.331 30.5685 -0.499992 -1.49998 2.64999 -9.44197 -18.7029 -7.15283 -4.13717e-07 -3.79998 3.70004 -0.145585 8.13449 0.0119296 3.5402e-07 -3.00004 2.69995 -0.00459706 55.179 0.00297766 1.35361e-05 -1.90009 1.59998 2.46703e-06 2.62362e-06 -9.85211e-06 6.88047e-06 -8.29995 1.9 -5.4267 -18.4861 -0.685265 -2.07565e-06 -4.49996 -5.41051e-06 -8.69455e-05 0.000694352 -0.0299056 -4.28726e-05 -3.4239 2.15166e-05 2.44692e-05 0.000706585 -0.0293232 -0.249993 -2.2 0.4 2.46703e-06 2.62362e-06 -9.85211e-06 -1.49941e-05 -8.29998 0.999993 -11.6677 -3.14739 0.3054 -2.49054e-09 -4.64997 1.1277e-06 -0.000101341 -0.00420313 -0.000805916 -2.56664e-05 -3.30004 1.15377e-05 3.51333e-06 -0.00378652 -0.000760637 -0.500014 -2.15006 -0.800018 2.46703e-06 2.62362e-06 -9.85211e-06 -8.50461e-06 -7.75001 -0.199999 -26.0801 11.5945 4.23195 1.00437e-05 -3.84935 9.02652e-07 -1.35906 -0.00572521 -0.00540364 -1.27827e-05 -3.40003 1.35011e-05 -3.97261e-05 -0.00929209 -0.00386357 -0.75002 -1.75003 -1.85001 2.46703e-06 2.62362e-06 -9.85211e-06 -1.75934e-05 -7.15 -0.999996 -39.1936 16.2969 8.10573 1.19021e-05 -3.00609 8.6701e-07 -31.1989 0.0158604 -0.0386902 -1.80488e-05 -2.35002 5.30195e-06 -16.0766 0.0118513 -0.0246878 -5.0002 16.9999 -0.000337222 0.405616 8.37161 0.85178 -6.45 0 -5.68434e-14 -0.239668 -1.25528 -3.10306 -6.44999 0.000195905 -0.000384437 -59.5542 35.1215 -22.6346 -7.16054e-05 -32.4 -1.99994 63.4926 -59.2443 65.9466 5.84589e-05 -25.65 1.99999 -18.111 -19.4475 22.5399 0.499998 -1.50004 2.65002 -100.52 8.53695 -54.0797 -5.89644e-05 -3.80006 3.70003 0.0627423 53.2427 0.0935641 -8.6633e-06 -3 2.69999 0.143077 45.5452 -0.572264 6.03382e-05 -1.89997 1.6 -1.94285e-06 -5.14492e-06 -3.56741e-06 -6.11137e-05 -8.30001 1.89996 5.19608 -6.27423 0.269206 -3.22398e-05 -4.49998 4.85188e-05 63.7204 -0.00327403 -0.0216611 4.50079e-05 -3.39999 -1.6755e-05 45.7817 -0.00323968 -0.012127 0.249969 -2.19998 0.400045 -1.94285e-06 -5.14492e-06 -3.56741e-06 2.38203e-05 -8.29996 0.999989 19.7289 -5.40776 -0.0897099 -1.20684e-05 -4.65003 -2.47509e-05 92.8911 -0.00213069 0.0219828 3.49888e-05 -3.29996 -1.01941e-05 88.1769 0.00961512 -0.00589114 0.499994 -2.15003 -0.799997 -1.94285e-06 -5.14492e-06 -3.56741e-06 3.32831e-05 -7.75001 -0.200036 42.854 -2.81556 -1.7658 4.06856e-06 -3.8 1.66202e-05 83.7589 -0.00461559 0.00589846 -2.5278e-05 -3.39995 -9.48401e-06 73.1851 0.00758298 0.00291587 0.750031 -1.74996 -1.84996 -1.94285e-06 -5.14492e-06 -3.56741e-06 -3.73632e-05 -7.15 -0.999996 61.7245 -5.20303 -1.81399 -5.09541e-06 -2.99998 2.36568e-05 60.9901 -0.000670579 0.00346701 -1.51668e-05 -2.35003 -1.12032e-05 42.9233 0.0010198 -0.0100706 8.00001 7.23545e-08 -1.02509e-05 12.9341 -17.6774 21.5569 6.78584e-06 -45 -1.00005 0.365252 1.91529 -0.65444 4.7885e-06 -41 -2.00001 -6.11302 18.7301 -29.8812 -1.91192e-05 -7.5 12.5 -1.90757e-07 -2.97291e-08 3.73165e-09 -1.13687e-13 -2.22045e-16 4 0.0335088 -4.28505 42.6152 -8.00001 -7.23545e-08 1.02509e-05 -7.17643 -4.23377 -15.8467 8.32895e-06 -45 -1.00001 0.0561238 14.6856 -6.34533 -5.4844e-06 -41 -2.00006 13.8974 -5.9586 -9.54599 2.94971e-05 -7.5 12.5 -0.0001802 -2.05733 4.73889e-05 0 0 4 -5.08273 6.61007 23.7607 
